<svg viewBox="0 0 72 72" xmlns="http://www.w3.org/2000/svg"><path d="m10 21v14h3v3h3v7h6v6h5 1v-6h16v6h6v-6h6v-7h3v-3h3v-15h-6v4 1h-7v-5h-4v-6h-6v6h-7v-6h-6v6h-4v5h-6v-5h-6z" fill="#8967aa"/><path d="m16 51h6v6h-6z" fill="#8967aa"/><path d="m50 51h6v6h-6z" fill="#8967aa"/><g stroke="#000" stroke-linecap="round" stroke-linejoin="round" stroke-width="2"><path d="m25.175 31h3.6v6h-3.6z"/><path d="m22 45h-6v-6" fill="none"/><path d="m22.583 25v-5h3.417" fill="none"/><path d="m48.708 25v-5h-3.416" fill="none"/><path d="m13 35h-3v-15h6v15" fill="none"/><path d="m56 35v-15h6v15h-3" fill="none"/><path d="m26 20v-6h6v6" fill="none"/><path d="m39 20v-6h6v6" fill="none"/><path d="m16 35h3v3h-6v-3" fill="none"/><path d="m59 35v3h-6v-3h3" fill="none"/><path d="m16 51h6v6h-6z" fill="none"/><path d="m50 51h6v6h-6z" fill="none"/><path d="m28 45v6h-6v-6" fill="none"/><path d="m50 45h6v-6" fill="none"/><path d="m44 45v6h6v-6" fill="none"/><path d="m43.425 31h3.6v6h-3.6z"/><path d="m28 45h16" fill="none"/><path d="m32 20h7" fill="none"/><path d="m16 25h6" fill="none"/><path d="m49 25h7" fill="none"/></g></svg>